<mxfile host="Electron" modified="2023-05-14T23:08:25.782Z" agent="Mozilla/5.0 (Windows NT 10.0; Win64; x64) AppleWebKit/537.36 (KHTML, like Gecko) draw.io/21.2.8 Chrome/112.0.5615.165 Electron/24.2.0 Safari/537.36" etag="j7SbH9hEUbGLMEVnlM7N" version="21.2.8" type="device">
  <diagram name="StrÃ¡nka-1" id="YKAlTzyOvdNg8_kezIfL">
    <mxGraphModel dx="989" dy="577" grid="1" gridSize="10" guides="1" tooltips="1" connect="1" arrows="1" fold="1" page="1" pageScale="1" pageWidth="827" pageHeight="1169" math="0" shadow="0">
      <root>
        <mxCell id="0" />
        <mxCell id="1" parent="0" />
        <mxCell id="yTKdE_tJS_5LfTgua-uk-1" value="CMD" style="rounded=0;whiteSpace=wrap;html=1;fillColor=#f5f5f5;fontColor=#333333;strokeColor=#000000;" vertex="1" parent="1">
          <mxGeometry x="30" y="80" width="70" height="40" as="geometry" />
        </mxCell>
        <mxCell id="yTKdE_tJS_5LfTgua-uk-5" value="data[&lt;b&gt;0&lt;/b&gt;]" style="rounded=0;whiteSpace=wrap;html=1;fillColor=#cce5fe;strokeColor=#000000;" vertex="1" parent="1">
          <mxGeometry x="110" y="80" width="70" height="40" as="geometry" />
        </mxCell>
        <mxCell id="yTKdE_tJS_5LfTgua-uk-6" value="data[&lt;b&gt;1&lt;/b&gt;]" style="rounded=0;whiteSpace=wrap;html=1;fillColor=#cce5fe;strokeColor=#000000;" vertex="1" parent="1">
          <mxGeometry x="190" y="80" width="70" height="40" as="geometry" />
        </mxCell>
        <mxCell id="yTKdE_tJS_5LfTgua-uk-8" value="data[&lt;b&gt;..&lt;/b&gt;]" style="rounded=0;whiteSpace=wrap;html=1;fillColor=#cce5fe;strokeColor=#000000;" vertex="1" parent="1">
          <mxGeometry x="270" y="80" width="70" height="40" as="geometry" />
        </mxCell>
        <mxCell id="yTKdE_tJS_5LfTgua-uk-20" value="" style="shape=curlyBracket;whiteSpace=wrap;html=1;rounded=1;flipH=1;labelPosition=right;verticalLabelPosition=middle;align=left;verticalAlign=middle;direction=south;" vertex="1" parent="1">
          <mxGeometry x="110" y="43" width="230" height="30" as="geometry" />
        </mxCell>
        <mxCell id="yTKdE_tJS_5LfTgua-uk-21" value="Command specific data" style="text;html=1;align=center;verticalAlign=middle;resizable=0;points=[];autosize=1;strokeColor=none;fillColor=none;fontSize=10;" vertex="1" parent="1">
          <mxGeometry x="160" y="20" width="130" height="30" as="geometry" />
        </mxCell>
      </root>
    </mxGraphModel>
  </diagram>
</mxfile>
